<svg width="250" height="90" viewBox="0 0 250 90" fill="none" xmlns="http://www.w3.org/2000/svg">
<rect width="250" height="90" fill="white"/>
<path d="M54.8315 31.0347C54.4214 31.0786 53.8354 31.1592 53.0737 31.2764C52.312 31.3936 51.6235 31.6792 51.0083 32.1333C50.4663 32.5288 50.0781 33.21 49.8438 34.1768C49.624 35.1289 49.5142 36.5352 49.5142 38.3955V60.6758H45.603L26.1792 36.5718V51.2056C26.1792 53.022 26.2964 54.4062 26.5308 55.3584C26.7798 56.2959 27.1753 56.9844 27.7173 57.4238C28.1128 57.7461 28.7427 58.0317 29.6069 58.2808C30.4712 58.5298 31.1597 58.6982 31.6724 58.7861V60.5H18.269V58.7861C18.8403 58.7422 19.4922 58.6396 20.2246 58.4785C20.9717 58.3027 21.5942 58.0391 22.0923 57.6875C22.6636 57.2627 23.0518 56.6255 23.2568 55.7759C23.4766 54.9116 23.5864 53.4688 23.5864 51.4473V36.6816C23.5864 35.9492 23.4692 35.2607 23.2349 34.6162C23.0151 33.957 22.6636 33.3931 22.1802 32.9243C21.6675 32.4263 21.0742 32.0381 20.4004 31.7598C19.7412 31.4668 18.9868 31.2397 18.1372 31.0786V29.3208H29.8706L46.9214 50.4146V38.6152C46.9214 36.7402 46.7969 35.3486 46.5479 34.4404C46.2988 33.5176 45.9033 32.8364 45.3613 32.397C44.9365 32.0601 44.3066 31.7744 43.4717 31.54C42.6367 31.291 41.9629 31.1226 41.4502 31.0347V29.3208H54.8315V31.0347ZM80.188 55.2485C79.6753 56.0835 79.0527 56.8745 78.3203 57.6216C77.6025 58.354 76.7822 58.9839 75.8594 59.5112C74.8779 60.0679 73.8818 60.4854 72.8711 60.7637C71.875 61.0566 70.7251 61.2031 69.4214 61.2031C67.2534 61.2031 65.3784 60.8955 63.7964 60.2803C62.229 59.665 60.9326 58.8374 59.9072 57.7974C58.8818 56.7573 58.1128 55.5342 57.6001 54.1279C57.1021 52.707 56.853 51.1689 56.853 49.5137C56.853 48.0195 57.124 46.5913 57.666 45.229C58.2227 43.8521 59.0063 42.6289 60.0171 41.5596C61.0132 40.5195 62.2656 39.6772 63.7744 39.0327C65.2979 38.3882 66.9971 38.0659 68.8721 38.0659C70.9229 38.0659 72.6074 38.3149 73.9258 38.813C75.2441 39.311 76.3354 39.9995 77.1997 40.8784C78.0347 41.7134 78.6426 42.7021 79.0234 43.8447C79.4043 44.9727 79.5947 46.1592 79.5947 47.4043V48.8325H64.7412C64.7412 51.8354 65.3198 54.1206 66.4771 55.688C67.6343 57.2554 69.4727 58.0391 71.9922 58.0391C73.3691 58.0391 74.6069 57.6655 75.7056 56.9185C76.8042 56.1567 77.7417 55.1973 78.5181 54.04L80.188 55.2485ZM71.7944 46.8989C71.7944 46.02 71.7505 45.1191 71.6626 44.1963C71.5747 43.2734 71.4209 42.519 71.2012 41.9331C70.9521 41.2446 70.6079 40.7246 70.1685 40.373C69.7437 40.0215 69.2017 39.8457 68.5425 39.8457C67.4146 39.8457 66.5137 40.417 65.8398 41.5596C65.166 42.7021 64.7998 44.5112 64.7412 46.9868L71.7944 46.8989ZM120.2 40.3071C119.526 40.4097 118.904 40.6367 118.333 40.9883C117.761 41.3252 117.278 41.9624 116.882 42.8999C115.857 45.4048 115.037 47.4263 114.421 48.9644C113.806 50.5024 112.942 52.7217 111.829 55.6221C111.594 56.2227 111.309 57.0503 110.972 58.105C110.649 59.1597 110.393 60.0239 110.203 60.6978H105.918L100.381 45.7563L95.1953 60.6978H90.9546C89.4751 56.6987 88.3105 53.6006 87.4609 51.4033C86.6113 49.1914 85.4761 46.2764 84.0552 42.6582C83.7915 41.9697 83.3374 41.4277 82.6929 41.0322C82.063 40.6367 81.4111 40.395 80.7373 40.3071V38.7031H94.2285V40.3071C93.7305 40.3511 93.1372 40.4683 92.4487 40.6587C91.7603 40.8491 91.416 41.1055 91.416 41.4277C91.416 41.5742 91.4307 41.7061 91.46 41.8232C91.5039 41.9258 91.5698 42.1235 91.6577 42.4165C92.0532 43.5591 92.5952 45.0386 93.2837 46.855C93.9722 48.6567 94.7778 50.7588 95.7007 53.1611L100.579 38.7031H104.929L110.488 53.6445C111.338 51.3887 111.99 49.6162 112.444 48.3271C112.913 47.0234 113.499 45.3462 114.202 43.2954C114.304 42.9878 114.363 42.7168 114.377 42.4824C114.407 42.2334 114.414 42.0723 114.399 41.999C114.399 41.7354 114.268 41.501 114.004 41.2959C113.74 41.0762 113.425 40.9004 113.059 40.7686C112.693 40.6367 112.334 40.5342 111.982 40.4609C111.646 40.3877 111.36 40.3364 111.125 40.3071V38.7031H120.2V40.3071ZM131.34 61.2471C129.919 61.2471 128.528 61.0347 127.166 60.6099C125.818 60.1997 124.771 59.7603 124.023 59.2915L123.364 60.7856H121.65L121.365 52.5898H122.969C123.188 53.249 123.555 53.9961 124.067 54.8311C124.58 55.6514 125.166 56.3911 125.825 57.0503C126.514 57.7095 127.297 58.2661 128.176 58.7202C129.07 59.1743 130.022 59.4014 131.033 59.4014C132.366 59.4014 133.354 59.145 133.999 58.6323C134.658 58.105 134.988 57.2993 134.988 56.2153C134.988 55.6294 134.841 55.146 134.548 54.7651C134.255 54.3843 133.853 54.0547 133.34 53.7764C132.769 53.4834 132.139 53.2344 131.45 53.0293C130.776 52.8242 129.941 52.5752 128.945 52.2822C127.949 51.9893 127.092 51.6963 126.375 51.4033C125.671 51.0957 124.939 50.6196 124.177 49.9751C123.518 49.4038 122.991 48.7153 122.595 47.9097C122.2 47.104 122.002 46.1445 122.002 45.0312C122.002 42.9658 122.866 41.2959 124.595 40.0215C126.338 38.7471 128.616 38.1099 131.428 38.1099C132.761 38.1099 133.984 38.249 135.098 38.5273C136.226 38.791 137.17 39.084 137.932 39.4062L138.394 38.1099H140.063L140.415 45.6025H138.855C138.342 44.0791 137.463 42.7681 136.218 41.6694C134.973 40.5562 133.633 39.9995 132.197 39.9995C131.069 39.9995 130.183 40.2339 129.539 40.7026C128.894 41.1714 128.572 41.8232 128.572 42.6582C128.572 43.7715 129.041 44.5771 129.978 45.0752C130.93 45.5732 132.256 46.042 133.955 46.4814C136.577 47.1553 138.496 48.0781 139.712 49.25C140.928 50.4072 141.536 51.8867 141.536 53.6885C141.536 56.0908 140.591 57.9512 138.701 59.2695C136.826 60.5879 134.373 61.2471 131.34 61.2471ZM172.012 46.1958C172.949 46.8403 173.711 47.6533 174.297 48.6348C174.883 49.6016 175.176 50.7441 175.176 52.0625C175.176 53.6445 174.839 54.9849 174.165 56.0835C173.506 57.1675 172.554 58.0244 171.309 58.6543C169.99 59.3281 168.467 59.8042 166.738 60.0825C165.024 60.3608 163.003 60.5 160.674 60.5H144.48V58.7861C144.934 58.7422 145.505 58.6763 146.194 58.5884C146.882 58.5005 147.366 58.3979 147.644 58.2808C148.186 58.061 148.552 57.7754 148.743 57.4238C148.948 57.0576 149.05 56.5889 149.05 56.0176V34.0449C149.05 33.5176 148.97 33.0781 148.809 32.7266C148.647 32.375 148.259 32.0674 147.644 31.8037C147.19 31.6133 146.663 31.4595 146.062 31.3423C145.461 31.2104 144.934 31.1079 144.48 31.0347V29.3208H161.421C165.684 29.3208 168.76 29.9067 170.649 31.0786C172.539 32.2505 173.484 33.979 173.484 36.2642C173.484 37.3188 173.271 38.249 172.847 39.0547C172.422 39.8457 171.814 40.5342 171.023 41.1201C170.305 41.6621 169.448 42.1309 168.452 42.5264C167.456 42.9219 166.387 43.2515 165.244 43.5151V43.9326C166.387 44.0498 167.573 44.3062 168.804 44.7017C170.034 45.0825 171.104 45.5806 172.012 46.1958ZM164.937 36.8135C164.937 35.085 164.446 33.7373 163.464 32.7705C162.498 31.8037 161.04 31.3203 159.092 31.3203C158.813 31.3203 158.447 31.335 157.993 31.3643C157.554 31.3789 157.173 31.3936 156.851 31.4082V42.9658H157.993C160.366 42.9658 162.117 42.4165 163.245 41.3179C164.373 40.2046 164.937 38.7031 164.937 36.8135ZM166.475 51.7769C166.475 49.6089 165.83 47.9463 164.541 46.7891C163.252 45.6318 161.399 45.0532 158.982 45.0532C158.704 45.0532 158.33 45.0679 157.861 45.0972C157.407 45.1118 157.07 45.1265 156.851 45.1411V56.5449C156.982 57.0869 157.393 57.5483 158.081 57.9292C158.77 58.2954 159.604 58.4785 160.586 58.4785C162.329 58.4785 163.743 57.8926 164.827 56.7207C165.925 55.5488 166.475 53.9009 166.475 51.7769ZM200.774 41.2959C201.858 42.3066 202.686 43.5151 203.257 44.9214C203.828 46.3276 204.114 47.8511 204.114 49.4917C204.114 51.1177 203.828 52.6558 203.257 54.106C202.7 55.5415 201.88 56.772 200.796 57.7974C199.639 58.896 198.254 59.7383 196.643 60.3242C195.046 60.9102 193.215 61.2031 191.15 61.2031C189.363 61.2031 187.715 60.9468 186.206 60.4341C184.712 59.9214 183.386 59.1523 182.229 58.127C181.116 57.1455 180.237 55.937 179.592 54.5015C178.948 53.0513 178.625 51.4326 178.625 49.6455C178.625 47.8877 178.904 46.3276 179.46 44.9653C180.032 43.5884 180.881 42.3652 182.009 41.2959C183.093 40.2705 184.426 39.4795 186.008 38.9229C187.605 38.3516 189.385 38.0659 191.348 38.0659C193.398 38.0659 195.2 38.3516 196.753 38.9229C198.32 39.4795 199.661 40.2705 200.774 41.2959ZM195.149 56.5229C195.471 55.7026 195.706 54.7065 195.852 53.5347C196.013 52.3628 196.094 51.0005 196.094 49.4478C196.094 48.4224 196.021 47.2505 195.874 45.9321C195.728 44.6138 195.508 43.5737 195.215 42.812C194.863 41.8892 194.373 41.1641 193.743 40.6367C193.127 40.1094 192.344 39.8457 191.392 39.8457C190.352 39.8457 189.517 40.1313 188.887 40.7026C188.271 41.2739 187.795 42.0137 187.458 42.9219C187.151 43.7568 186.938 44.7383 186.821 45.8662C186.704 46.9795 186.646 48.144 186.646 49.3599C186.646 50.9565 186.697 52.2822 186.799 53.3369C186.902 54.377 187.151 55.4243 187.546 56.479C187.883 57.3872 188.367 58.105 188.997 58.6323C189.626 59.1597 190.425 59.4233 191.392 59.4233C192.271 59.4233 193.025 59.1816 193.655 58.6982C194.285 58.2002 194.783 57.4751 195.149 56.5229ZM231.997 60.5H218.264V58.896C218.982 58.8521 219.583 58.7935 220.066 58.7202C220.549 58.6323 220.791 58.4639 220.791 58.2148C220.791 58.0977 220.725 57.9146 220.593 57.6655C220.476 57.4165 220.322 57.1382 220.132 56.8306C219.854 56.3765 219.37 55.6587 218.682 54.6772C218.008 53.6958 217.371 52.7876 216.77 51.9526C215.92 52.9341 215.21 53.7764 214.639 54.4795C214.067 55.1826 213.467 55.937 212.837 56.7427C212.617 57.0063 212.463 57.248 212.375 57.4678C212.288 57.6875 212.244 57.8193 212.244 57.8633C212.244 58.2002 212.478 58.4565 212.947 58.6323C213.43 58.8081 214.001 58.896 214.661 58.896V60.5H205.74V58.896C206.926 58.647 207.871 58.2515 208.574 57.7095C209.292 57.1675 209.775 56.75 210.024 56.457C211.094 55.3145 211.995 54.3696 212.727 53.6226C213.474 52.8608 214.47 51.7988 215.715 50.4365C214.88 49.2793 213.87 47.8657 212.683 46.1958C211.497 44.5259 210.508 43.1562 209.717 42.0869C209.321 41.5596 208.838 41.1567 208.267 40.8784C207.695 40.5854 206.956 40.395 206.047 40.3071V38.7031H219.473V40.3071C218.989 40.3071 218.513 40.3364 218.044 40.395C217.576 40.4536 217.341 40.5562 217.341 40.7026C217.341 40.8198 217.378 40.9663 217.451 41.1421C217.524 41.3179 217.62 41.501 217.737 41.6914C218.015 42.1602 218.455 42.8486 219.055 43.7568C219.656 44.665 220.3 45.6172 220.989 46.6133C221.648 45.8076 222.197 45.1484 222.637 44.6357C223.091 44.123 223.669 43.3979 224.373 42.4604C224.636 42.1089 224.797 41.8452 224.856 41.6694C224.929 41.4937 224.966 41.3838 224.966 41.3398C224.966 41.0908 224.805 40.8711 224.482 40.6807C224.175 40.4756 223.56 40.3511 222.637 40.3071V38.7031H231.382V40.3071C230.664 40.4243 229.968 40.666 229.294 41.0322C228.621 41.3984 227.917 41.9697 227.185 42.7461C226.042 43.9326 225.208 44.8042 224.68 45.3608C224.167 45.9028 223.311 46.811 222.109 48.0854C222.783 49.0376 223.757 50.4219 225.032 52.2383C226.306 54.0547 227.405 55.5854 228.328 56.8306C228.723 57.3872 229.163 57.8413 229.646 58.1929C230.144 58.5444 230.928 58.7788 231.997 58.896V60.5Z" fill="black"/>
</svg>
